<svg width="254" height="253" viewBox="0 0 254 253" fill="none" xmlns="http://www.w3.org/2000/svg">
<path d="M126.806 252.502L162.282 52.983C196.097 52.983 206.763 56.691 208.303 71.826C208.303 71.826 230.987 63.368 242.428 46.19C197.782 25.502 152.923 24.569 152.923 24.569L126.747 56.451L126.806 56.447L100.63 24.564C100.63 24.564 55.77 25.498 11.13 46.186C22.561 63.364 45.254 71.822 45.254 71.822C46.803 56.686 57.456 52.978 91.044 52.954L126.806 252.502" fill="black"/>
<path d="M126.792 15.36C162.882 15.084 204.191 20.943 246.479 39.374C252.131 29.201 253.584 24.705 253.584 24.705C207.357 6.416 164.066 0.157 126.787 0C89.51 0.157 46.221 6.417 0 24.705C0 24.705 2.062 30.243 7.1 39.374C49.38 20.943 90.696 15.084 126.787 15.36H126.792Z" fill="black"/>
<path d="M118.811 94L125.363 79.3H128.723L135.296 94H131.726L126.35 81.022H127.694L122.297 94H118.811ZM122.087 90.85L122.99 88.267H130.55L131.474 90.85H122.087ZM125.573 146.252C124.397 146.252 123.27 146.098 122.192 145.79C121.114 145.468 120.246 145.055 119.588 144.551L120.743 141.989C121.373 142.437 122.115 142.808 122.969 143.102C123.837 143.382 124.712 143.522 125.594 143.522C126.266 143.522 126.805 143.459 127.211 143.333C127.631 143.193 127.939 143.004 128.135 142.766C128.331 142.528 128.429 142.255 128.429 141.947C128.429 141.555 128.275 141.247 127.967 141.023C127.659 140.785 127.253 140.596 126.749 140.456C126.245 140.302 125.685 140.162 125.069 140.036C124.467 139.896 123.858 139.728 123.242 139.532C122.64 139.336 122.087 139.084 121.583 138.776C121.079 138.468 120.666 138.062 120.344 137.558C120.036 137.054 119.882 136.41 119.882 135.626C119.882 134.786 120.106 134.023 120.554 133.337C121.016 132.637 121.702 132.084 122.612 131.678C123.536 131.258 124.691 131.048 126.077 131.048C127.001 131.048 127.911 131.16 128.807 131.384C129.703 131.594 130.494 131.916 131.18 132.35L130.13 134.933C129.444 134.541 128.758 134.254 128.072 134.072C127.386 133.876 126.714 133.778 126.056 133.778C125.398 133.778 124.859 133.855 124.439 134.009C124.019 134.163 123.718 134.366 123.536 134.618C123.354 134.856 123.263 135.136 123.263 135.458C123.263 135.836 123.417 136.144 123.725 136.382C124.033 136.606 124.439 136.788 124.943 136.928C125.447 137.068 126 137.208 126.602 137.348C127.218 137.488 127.827 137.649 128.429 137.831C129.045 138.013 129.605 138.258 130.109 138.566C130.613 138.874 131.019 139.28 131.327 139.784C131.649 140.288 131.81 140.925 131.81 141.695C131.81 142.521 131.579 143.277 131.117 143.963C130.655 144.649 129.962 145.202 129.038 145.622C128.128 146.042 126.973 146.252 125.573 146.252Z" fill="white"/>
</svg>
