<svg width="255" height="254" viewBox="0 0 255 254" fill="none" xmlns="http://www.w3.org/2000/svg">
<g clip-path="url(#clip0_304_3)">
<path d="M127.306 253.002L162.782 53.483C196.597 53.483 207.263 57.191 208.803 72.326C208.803 72.326 231.487 63.868 242.928 46.69C198.282 26.002 153.423 25.069 153.423 25.069L127.247 56.951L127.306 56.947L101.13 25.064C101.13 25.064 56.27 25.998 11.63 46.686C23.061 63.864 45.754 72.322 45.754 72.322C47.303 57.186 57.956 53.478 91.544 53.454L127.306 253.002Z" fill="#E8B021"/>
<path d="M127.292 15.86C163.382 15.584 204.691 21.443 246.979 39.874C252.631 29.701 254.084 25.205 254.084 25.205C207.857 6.916 164.566 0.657 127.287 0.5C90.01 0.657 46.721 6.917 0.5 25.205C0.5 25.205 2.562 30.743 7.6 39.874C49.88 21.443 91.196 15.584 127.287 15.86H127.292Z" fill="#E8B021"/>
<path d="M118.811 97L125.363 82.3H128.723L135.296 97H131.726L126.35 84.022H127.694L122.297 97H118.811ZM122.087 93.85L122.99 91.267H130.55L131.474 93.85H122.087ZM125.573 149.252C124.397 149.252 123.27 149.098 122.192 148.79C121.114 148.468 120.246 148.055 119.588 147.551L120.743 144.989C121.373 145.437 122.115 145.808 122.969 146.102C123.837 146.382 124.712 146.522 125.594 146.522C126.266 146.522 126.805 146.459 127.211 146.333C127.631 146.193 127.939 146.004 128.135 145.766C128.331 145.528 128.429 145.255 128.429 144.947C128.429 144.555 128.275 144.247 127.967 144.023C127.659 143.785 127.253 143.596 126.749 143.456C126.245 143.302 125.685 143.162 125.069 143.036C124.467 142.896 123.858 142.728 123.242 142.532C122.64 142.336 122.087 142.084 121.583 141.776C121.079 141.468 120.666 141.062 120.344 140.558C120.036 140.054 119.882 139.41 119.882 138.626C119.882 137.786 120.106 137.023 120.554 136.337C121.016 135.637 121.702 135.084 122.612 134.678C123.536 134.258 124.691 134.048 126.077 134.048C127.001 134.048 127.911 134.16 128.807 134.384C129.703 134.594 130.494 134.916 131.18 135.35L130.13 137.933C129.444 137.541 128.758 137.254 128.072 137.072C127.386 136.876 126.714 136.778 126.056 136.778C125.398 136.778 124.859 136.855 124.439 137.009C124.019 137.163 123.718 137.366 123.536 137.618C123.354 137.856 123.263 138.136 123.263 138.458C123.263 138.836 123.417 139.144 123.725 139.382C124.033 139.606 124.439 139.788 124.943 139.928C125.447 140.068 126 140.208 126.602 140.348C127.218 140.488 127.827 140.649 128.429 140.831C129.045 141.013 129.605 141.258 130.109 141.566C130.613 141.874 131.019 142.28 131.327 142.784C131.649 143.288 131.81 143.925 131.81 144.695C131.81 145.521 131.579 146.277 131.117 146.963C130.655 147.649 129.962 148.202 129.038 148.622C128.128 149.042 126.973 149.252 125.573 149.252Z" fill="black"/>
</g>
<defs>
<clipPath id="clip0_304_3">
<rect width="254.584" height="253.502" fill="white"/>
</clipPath>
</defs>
</svg>
